<svg id="Net" xmlns="http://www.w3.org/2000/svg" viewBox="0 0 3109.46 1858.43"><defs><style>.cls-1{fill:#563816;}.cls-2{fill:#68ca35;}</style></defs><title>Bachviet_logo</title><path class="cls-1" d="M2571.06,1313c-7.68-17.78-14.14-35.86-13.44-54.3.73-8,.68-14.59,6-22.11,15.42,20,34.62,32.17,52.47,45.85,16.88,12.92,34.19,25.34,48.87,40.83,21.27,22.44,23.15,49.36,4.81,77.56-21.5,4.41-38.92-5.7-54.27-20C2595.28,1361.9,2581.94,1338.17,2571.06,1313Z" transform="translate(-1322.59 -1198.75)"/><path class="cls-1" d="M2691.58,1390.29c3.47-10,4.87-15.37,5.47-21,2.39-22.13-5.84-40.42-20.72-56-17.07-17.92-37.49-31.82-57.11-46.66-17.48-13.21-34.77-26.63-47.59-43.2,14.56-22.55,31-28.81,53.57-22.17,25.62,7.55,47.16,28.06,61.36,49.46,19.66,31.65,34.09,69,25.88,110.82-2.67,9-7.07,20-17.3,27A11.52,11.52,0,0,1,2691.58,1390.29Z" transform="translate(-1322.59 -1198.75)"/><path class="cls-2" d="M2861,1289.66c-89.7,7.9-142.55,49.71-164.47,132C2775.38,1419.93,2836.06,1368.81,2861,1289.66Z" transform="translate(-1322.59 -1198.75)"/><path class="cls-1" d="M3393,1720.85c-26.61-94.14-119.46-147.38-207.37-118.92s-137.61,127.83-111,222,119.46,147.38,207.38,118.92c67.35-21.8,114.58-86.63,117.94-161.88l243.08,6.38c-7.12,190.66-147.64,350.24-336.66,382.33-220.52,37.43-429.79-110.08-467.41-329.49s110.65-427.62,331.17-465.06,429.79,110.08,467.41,329.49Z" transform="translate(-1322.59 -1198.75)"/><polygon class="cls-1" points="2841.78 474.92 2635.9 474.92 2635.9 189.73 2409.75 189.73 2409.75 957.24 2635.9 957.24 2635.9 681.53 2841.78 681.53 2841.78 474.92"/><path class="cls-1" d="M2731.75,2156H2503.81V1662.38c-.21-20.85-1.43-34.41-9-45.53-9-13.17-27-22.92-44.38-22.42a51.62,51.62,0,0,0-37.3,18.49c-10,12.43-11.5,28.61-11.83,49.46V1771H2464v200.47h-62.74V2156H2173.31V1662.38c.83-25.63,1.67-51.25,6.2-76.87,11.55-65.25,47.1-130.47,99.69-169.27,48.22-35.58,110.78-49,173.33-49s125.11,13.38,173.33,49c52.59,38.8,88.14,104,99.69,169.27,4.53,25.62,5.37,51.24,6.2,76.87Z" transform="translate(-1322.59 -1198.75)"/><polyline class="cls-1" points="515.75 1160.48 452.21 997.18 267.8 997.18 515.75 1512.16 763.7 997.18 579.3 997.18 515.75 1160.48"/><rect class="cls-1" x="1116.19" y="997.18" width="172.33" height="514.99"/><path class="cls-1" d="M3212,2560.6h132.92v150.32H3197.73q-7.11,0-14.2-.19-4-.09-8.05-.35l-17.67-1.15-1.5-.12c-3.26-.3-6.52-.66-9.76-1.09q-3.37-.45-6.7-1.08l-1.84-.37c-1.14-.23-2.28-.47-3.41-.72q-4.51-1-9-2.16-4.68-1.26-9.29-2.72-4.22-1.33-8.32-3-4.58-1.82-9-3.91c-1.32-.62-2.62-1.25-3.92-1.9s-2.7-1.37-4-2.08c-2.43-1.29-4.8-2.66-7.13-4.11-3.16-2-6.28-4.05-9.33-6.2q-3.69-2.59-7.19-5.44-3.75-3-7.29-6.32t-6.94-6.87q-3-3.15-5.72-6.52-3.67-4.51-7.13-9.23-2-2.71-3.72-5.6l-.25-.41-.29-.49q-2.14-3.58-4.15-7.23-2.61-4.77-5.08-9.6a63.71,63.71,0,0,1-3.05-6.92c-1.29-3.43-2.44-6.92-3.46-10.44-.39-1.37-.73-2.75-1-4.15q-1.38-6.87-2.6-13.76a41.12,41.12,0,0,1-.57-5.08c-.07-1.52-.13-3-.15-4.57V2365.11c0-.4,0-.81,0-1.22,0-2.87.15-5.73.34-8.6q.63-9.61,1.28-19.24c.05-.7.1-1.4.17-2.1.28-3.1.62-6.2,1-9.28s.84-6.24,1.34-9.35q.71-4.43,1.65-8.8c.52-2.39,1.11-4.77,1.79-7.12q1.14-4,2.44-8,.87-2.64,1.9-5.24l.12-.31.24-.59q1.44-3.57,3.13-7,2.21-4.5,4.65-8.88a74.16,74.16,0,0,1,4.23-6.71q3-4.18,6.26-8.12,3.49-4.18,7.22-8.16c1.92-2.05,3.92-4,6-6q2.36-2.17,4.78-4.29c1.64-1.43,3.31-2.83,5-4.21q3.39-2.78,6.94-5.35t7.53-5.14q3.91-2.52,8.05-4.7t8.41-4q5.16-2.17,10.42-4.12,3.8-1.4,7.67-2.57l3.63-1.07,2-.56c2.19-.59,4.4-1.14,6.62-1.63q4.45-1,8.94-1.8,4.18-.78,8.4-1.39,4.47-.65,9-1.15,5.83-.64,11.69-1.13,3.83-.33,7.67-.49l2.78-.11,18.2-.62,2.08-.05,6.42-.13h139v150.32H3226.44c-6.25.34-15.07.5-21.57,5.46a24.65,24.65,0,0,0-9.14,19.11c.05,8.94,5.45,18.06,12.52,22,6,3.37,13.13,3.08,18.19,3.12h111.93v114.87H3212c-6.25.33-15.07.5-21.57,5.46a24.62,24.62,0,0,0-9.14,19.11c0,8.94,5.45,18.06,12.52,22.05C3199.75,2560.85,3206.9,2560.56,3212,2560.6Z" transform="translate(-1322.59 -1198.75)"/><polygon class="cls-1" points="2841.78 997.18 2409.75 997.18 2409.75 1166.49 2539.6 1166.49 2539.6 1512.16 2711.93 1512.16 2711.93 1166.49 2841.78 1166.49 2841.78 997.18"/><path class="cls-1" d="M4432,1388.49H4204.18V2742.06H1550.45V1594.31h.08l241.67.08c15.27.59,28.65.53,38.78,7.76,8.76,6.26,15.08,18,15.31,30,.27,14.27-8,29-19.12,35.67-9.39,5.6-20.82,5.41-35,5.82H1590.46v206.62h234.89c16.06.68,30.14.31,40.68,7.84,8.77,6.26,15.09,18,15.32,30,.27,14.27-8,29-19.12,35.67-9.4,5.6-20.82,5.41-35,5.82h-236.8V2156H1828c65.64-5.05,131.27-10.1,178.75-45.38,37-27.54,63-73.48,73.89-123.51,13.67-63,3.3-132.52-34.44-178-22.2-26.77-53.87-45.24-85.53-63.71,19.3-17.57,38.6-35.14,53.17-56.21,20.91-30.22,32.08-67.66,31.92-106.29-.24-56.26-24.5-115-64.44-148.22-47.1-39.12-116-42.64-184.9-46.16H1322.59v1668.7H4432.05V1388.49ZM1736.25,3021.66a123.79,123.79,0,1,1,101.24-142.83l-74.59,4.92a49.34,49.34,0,1,0,2.62,15.87h73.73A123.8,123.8,0,0,1,1736.25,3021.66Zm285.65,1.59a123.63,123.63,0,1,1,123.62-123.63A123.63,123.63,0,0,1,2021.9,3023.25ZM2319.13,2856a24.64,24.64,0,0,0-2.23-4.37,16.81,16.81,0,0,0-2.62-3.15c-.57-.55-1.16-1.09-1.75-1.61a6.86,6.86,0,0,0-.59-.48,13.71,13.71,0,0,0-3.34-1.82,20,20,0,0,0-4.43-1.11c-.37,0-.73-.08-1.1-.11s-1-.05-1.49-.05a16.23,16.23,0,0,0-4.75.62,10.59,10.59,0,0,0-3.44,1.72,11.13,11.13,0,0,0-1.57,1.42,7.52,7.52,0,0,0-1,1.42,18.31,18.31,0,0,0-1.38,3,18.11,18.11,0,0,0-.8,3.08c-.16,1-.3,2-.41,3-.23,2.14-.42,4.29-.59,6.43,0,.54-.07,1.07-.08,1.6,0,1.09,0,2.17,0,3.25v22.82h22V2955h-22v63.44h-72.81V2868.53c0-2,0-4.06.1-6.09q.06-1.68.24-3.36c.27-2.62.56-5.23.85-7.85,0-.36.09-.73.15-1.09q.32-2.08.72-4.14c.29-1.47.6-2.93.95-4.39s.69-2.76,1.08-4.13.81-2.72,1.26-4.06.88-2.51,1.36-3.75,1.07-2.64,1.65-3.94,1.18-2.55,1.81-3.81,1.21-2.32,1.87-3.46,1.38-2.34,2.11-3.48,1.46-2.21,2.23-3.29c.89-1.23,1.79-2.45,2.72-3.64.75-1,1.51-1.88,2.3-2.8.55-.64,1.12-1.27,1.69-1.9s1.32-1.41,2-2.11c.91-.95,1.86-1.88,2.82-2.77s2.11-1.91,3.2-2.83,1.94-1.58,2.94-2.33q1.76-1.3,3.58-2.52c1.15-.77,2.32-1.51,3.51-2.23s2.27-1.32,3.42-1.95,2.4-1.25,3.62-1.83,2.48-1.15,3.74-1.68,2.68-1.08,4-1.58,2.53-.87,3.82-1.26,2.59-.75,3.91-1.09,2.84-.69,4.28-1,3.17-.64,4.77-.92c1.3-.22,2.61-.42,3.92-.58,1.64-.21,3.29-.38,4.94-.52q2.08-.17,4.17-.24c.89,0,1.79,0,2.68-.06l3.09,0c1.58,0,3.15,0,4.73.09s3,.13,4.55.24c1.24.09,2.47.22,3.7.38,1.73.23,3.44.49,5.16.79,1.48.27,3,.56,4.44.88,1.31.29,2.62.61,3.92,1s2.43.7,3.62,1.09q2.14.7,4.23,1.5c1.32.51,2.62,1,3.91,1.61,1.11.49,2.2,1,3.28,1.57s2.19,1.18,3.26,1.81c1.3.79,2.58,1.6,3.85,2.45s2.5,1.73,3.73,2.64c1,.77,2.05,1.56,3,2.38s2.15,1.82,3.18,2.78,2.08,2,3.09,3c.33.34.66.68,1,1,1.66,1.85,3.32,3.7,5,5.56.59.66,1.14,1.34,1.68,2q1.55,2,3,4.14Zm209.81,0a24.68,24.68,0,0,0-2.24-4.37,17.15,17.15,0,0,0-2.61-3.15c-.58-.55-1.16-1.09-1.75-1.61-.19-.17-.39-.33-.59-.48a14,14,0,0,0-3.35-1.82,19.83,19.83,0,0,0-4.43-1.11c-.36,0-.73-.08-1.09-.11s-1-.05-1.5-.05a16.17,16.17,0,0,0-4.74.62,10.64,10.64,0,0,0-3.45,1.72,11.13,11.13,0,0,0-1.57,1.42,8,8,0,0,0-1,1.42,20.12,20.12,0,0,0-1.38,3,18.08,18.08,0,0,0-.79,3.08c-.17,1-.31,2-.41,3-.23,2.14-.43,4.29-.6,6.43,0,.54-.06,1.07-.07,1.6,0,1.09,0,2.17,0,3.25v22.82h22V2955h-22v63.44h-72.8V2868.53q0-3,.09-6.09.06-1.68.24-3.36c.28-2.62.57-5.23.86-7.85,0-.36.09-.73.14-1.09q.32-2.08.72-4.14c.29-1.47.61-2.93.95-4.39s.69-2.76,1.09-4.13.8-2.72,1.25-4.06.88-2.51,1.37-3.75,1.06-2.64,1.64-3.94,1.18-2.55,1.81-3.81,1.22-2.32,1.87-3.46,1.38-2.34,2.11-3.48,1.47-2.21,2.24-3.29c.88-1.23,1.79-2.45,2.72-3.64.74-1,1.5-1.88,2.29-2.8.56-.64,1.12-1.27,1.7-1.9s1.31-1.41,2-2.11c.92-.95,1.86-1.88,2.83-2.77s2.1-1.91,3.19-2.83,1.94-1.58,2.95-2.33c1.16-.87,2.36-1.71,3.57-2.52s2.33-1.51,3.52-2.23,2.26-1.32,3.42-1.95,2.39-1.25,3.62-1.83,2.47-1.15,3.73-1.68,2.69-1.08,4-1.58,2.53-.87,3.81-1.26,2.6-.75,3.91-1.09,2.85-.69,4.28-1c1.59-.34,3.18-.64,4.77-.92,1.3-.22,2.61-.42,3.92-.58,1.65-.21,3.29-.38,4.94-.52,1.39-.11,2.78-.19,4.18-.24l2.67-.06,3.09,0c1.58,0,3.16,0,4.73.09s3,.13,4.55.24c1.24.09,2.47.22,3.71.38,1.72.23,3.44.49,5.15.79,1.49.27,3,.56,4.44.88s2.62.61,3.92,1,2.43.7,3.63,1.09q2.13.7,4.23,1.5c1.31.51,2.61,1,3.9,1.61,1.11.49,2.21,1,3.29,1.57s2.18,1.18,3.25,1.81c1.3.79,2.59,1.6,3.85,2.45s2.51,1.73,3.73,2.64c1,.77,2,1.56,3,2.38s2.15,1.82,3.19,2.78,2.08,2,3.08,3c.33.34.66.68,1,1q2.49,2.78,5,5.56c.58.66,1.14,1.34,1.67,2q1.54,2,3,4.14Zm235.88-6h-45.31c-2.88.16-7,.23-10,2.52a11.39,11.39,0,0,0-4.22,8.84,12.34,12.34,0,0,0,5.78,10.19c2.76,1.55,6.07,1.42,8.4,1.44h42.3V2926h-49c-2.89.15-7,.23-10,2.52a11.37,11.37,0,0,0-4.22,8.83,12.31,12.31,0,0,0,5.79,10.19c2.75,1.56,6.06,1.42,8.4,1.44h52v69.46h-49.4q-3.28,0-6.56-.08c-1.25,0-2.48-.09-3.72-.17l-8.17-.53-.69,0c-1.51-.14-3-.31-4.51-.51-1-.13-2.07-.3-3.1-.5l-.85-.16-1.57-.34c-1.39-.3-2.78-.63-4.15-1s-2.87-.8-4.3-1.25-2.57-.87-3.84-1.37-2.81-1.16-4.18-1.81c-.61-.28-1.21-.58-1.81-.88s-1.25-.63-1.87-1c-1.12-.59-2.22-1.23-3.29-1.9-1.46-.91-2.9-1.87-4.31-2.86-1.14-.8-2.25-1.64-3.32-2.51s-2.28-1.92-3.37-2.93-2.17-2.08-3.21-3.17-1.8-2-2.64-3q-1.71-2.1-3.3-4.27c-.61-.83-1.18-1.7-1.72-2.59l-.11-.19-.14-.22c-.66-1.11-1.3-2.22-1.91-3.34q-1.22-2.21-2.35-4.44a31.22,31.22,0,0,1-1.41-3.19q-.9-2.39-1.6-4.83c-.18-.63-.34-1.27-.47-1.92q-.64-3.16-1.2-6.36a18.42,18.42,0,0,1-.27-2.34c0-.71-.05-1.41-.07-2.12v-98c0-.19,0-.38,0-.57,0-1.32.07-2.65.16-4,.19-3,.39-5.93.59-8.89,0-.33,0-.65.08-1,.13-1.43.29-2.86.47-4.29s.39-2.89.62-4.32.47-2.72.76-4.07c.24-1.1.51-2.2.82-3.29s.73-2.46,1.13-3.68c.27-.81.56-1.62.88-2.42l.06-.14c0-.09.07-.19.11-.28.44-1.1.92-2.18,1.44-3.25q1-2.09,2.15-4.1a34.41,34.41,0,0,1,2-3.1c.91-1.29,1.88-2.55,2.89-3.76s2.19-2.54,3.34-3.77c.89-1,1.81-1.86,2.76-2.75.73-.67,1.46-1.33,2.21-2s1.53-1.31,2.31-2c1-.85,2.11-1.67,3.2-2.47s2.3-1.61,3.48-2.37,2.45-1.5,3.72-2.17,2.57-1.29,3.89-1.85q2.39-1,4.81-1.9c1.17-.43,2.35-.83,3.55-1.19l1.67-.49.92-.26q1.51-.42,3.06-.75c1.37-.31,2.75-.58,4.13-.84s2.58-.45,3.88-.64,2.76-.38,4.14-.53c1.8-.2,3.6-.37,5.41-.52,1.17-.1,2.35-.18,3.54-.23l1.28,0,8.41-.29,1,0,3-.06h45.64Zm203.7,0h-45.3c-2.89.16-7,.23-10,2.52a11.39,11.39,0,0,0-4.22,8.84,12.34,12.34,0,0,0,5.78,10.19c2.76,1.55,6.07,1.42,8.41,1.44h42.29V2926h-49c-2.88.15-7,.23-10,2.52a11.34,11.34,0,0,0-4.23,8.83,12.31,12.31,0,0,0,5.79,10.19c2.76,1.56,6.06,1.42,8.4,1.44h52v69.46h-49.4q-3.28,0-6.56-.08c-1.24,0-2.48-.09-3.72-.17l-8.16-.53-.7,0c-1.51-.14-3-.31-4.51-.51-1-.13-2.07-.3-3.1-.5l-.85-.16-1.57-.34c-1.39-.3-2.78-.63-4.15-1s-2.87-.8-4.29-1.25-2.58-.87-3.85-1.37-2.8-1.16-4.18-1.81c-.6-.28-1.21-.58-1.81-.88s-1.25-.63-1.87-1c-1.12-.59-2.21-1.23-3.29-1.9-1.46-.91-2.9-1.87-4.31-2.86-1.14-.8-2.24-1.64-3.32-2.51s-2.28-1.92-3.37-2.93-2.17-2.08-3.21-3.17-1.8-2-2.64-3q-1.69-2.1-3.29-4.27a29.81,29.81,0,0,1-1.72-2.59l-.12-.19-.14-.22c-.65-1.11-1.29-2.22-1.91-3.34-.8-1.47-1.59-3-2.35-4.44a31.22,31.22,0,0,1-1.41-3.19q-.9-2.39-1.6-4.83c-.18-.63-.34-1.27-.47-1.92q-.63-3.16-1.2-6.36a18.41,18.41,0,0,1-.26-2.34c0-.71-.06-1.41-.07-2.12v-98.56c0-1.32.08-2.65.16-4,.2-3,.39-5.93.59-8.89,0-.33.05-.65.08-1,.13-1.43.29-2.86.47-4.29s.39-2.89.62-4.32.47-2.72.76-4.07c.24-1.1.52-2.2.83-3.29s.72-2.46,1.13-3.68c.26-.81.56-1.62.87-2.42l.06-.14c0-.09.07-.19.11-.28.44-1.1.92-2.18,1.45-3.25.67-1.39,1.39-2.76,2.14-4.1a34.41,34.41,0,0,1,2-3.1c.91-1.29,1.88-2.55,2.89-3.76s2.19-2.54,3.34-3.77c.89-1,1.81-1.86,2.76-2.75.73-.67,1.46-1.33,2.21-2s1.53-1.31,2.31-2c1-.85,2.11-1.67,3.2-2.47s2.3-1.61,3.48-2.37,2.45-1.5,3.72-2.17,2.57-1.29,3.89-1.85q2.38-1,4.81-1.9c1.17-.43,2.36-.83,3.55-1.19l1.68-.49.91-.26q1.53-.42,3.06-.75c1.37-.31,2.75-.58,4.13-.84s2.58-.45,3.88-.64,2.76-.38,4.14-.53c1.8-.2,3.6-.37,5.41-.52,1.18-.1,2.36-.18,3.54-.23l1.28,0,8.41-.29,1,0,3-.06h45.64ZM3308,3013.8l-7-12.12q-2.38,1.72-4.85,3.33c-.92.6-1.87,1.16-2.84,1.69-2.22,1.2-4.44,2.4-6.67,3.58q-.49.27-1,.51c-1.59.75-3.21,1.47-4.84,2.14-.93.39-1.88.73-2.85,1l-.61.19-.72.23c-1.18.36-2.37.7-3.56,1-1.57.43-3.14.84-4.72,1.22-1.42.36-2.85.65-4.3.89s-2.86.41-4.31.54c-1.63.13-3.27.24-4.91.32-1.33.06-2.66.1-4,.09s-2.56,0-3.83-.09c-1.69-.08-3.38-.19-5.07-.32-1.17-.1-2.33-.24-3.49-.42-1.66-.27-3.31-.57-5-.92-1.4-.3-2.79-.64-4.18-1s-2.57-.74-3.84-1.16-2.48-.88-3.7-1.37-2.68-1.12-4-1.73-2.61-1.26-3.89-1.94-2.33-1.29-3.47-2-2.52-1.6-3.75-2.46-2.15-1.55-3.18-2.38q-2.05-1.65-4-3.39c-.85-.74-1.68-1.51-2.48-2.3l-.66-.65-.68-.69c-.89-.89-1.75-1.81-2.6-2.76-1.1-1.23-2.19-2.48-3.25-3.76-.79-.94-1.55-1.92-2.27-2.92q-1.38-1.92-2.66-3.93c-.73-1.14-1.42-2.29-2.08-3.47s-1.38-2.52-2-3.8-1.24-2.59-1.81-3.91-1-2.45-1.45-3.7-.86-2.51-1.23-3.79-.78-2.81-1.11-4.23-.69-3.15-1-4.73c-.21-1.21-.39-2.42-.52-3.63-.19-1.68-.34-3.37-.46-5.06-.08-1.21-.12-2.42-.13-3.63v-1.76c0-1.35.05-2.69.12-4,.09-1.78.22-3.55.38-5.32.11-1.19.27-2.38.47-3.56.3-1.69.64-3.38,1-5,.35-1.5.76-3,1.22-4.46q.55-1.82,1.29-3.57c.52-1.27,1.09-2.54,1.71-3.78s1.21-2.35,1.88-3.49c.4-.69.82-1.37,1.25-2s.77-1.2,1.17-1.79c.66-1,1.35-1.88,2.09-2.77,1-1.18,2-2.32,3-3.42s1.84-1.87,2.81-2.74,2.16-1.89,3.29-2.77,2.48-1.88,3.77-2.75c1.05-.72,2.14-1.39,3.26-2,.6-.34,1.22-.67,1.84-1,2.08-1,4.17-2,6.26-3a15.87,15.87,0,0,1,3.73-1.24,2.58,2.58,0,0,0,1.37-.77,1.4,1.4,0,0,0-.07-2,1.16,1.16,0,0,0-.34-.24,13.27,13.27,0,0,1-5.27-4.61c-1.41-2.11-2.79-4.23-4.17-6.36a9.12,9.12,0,0,1-.51-.91c-.64-1.29-1.24-2.6-1.79-3.92s-1.11-2.54-1.72-3.77c0-.05-.05-.09-.07-.13a18.9,18.9,0,0,1-1-2.51q-.89-2.76-1.58-5.55c-.4-1.62-.75-3.25-1.06-4.88-.22-1.18-.4-2.37-.53-3.57-.19-1.8-.35-3.6-.46-5.41-.08-1.21-.12-2.41-.12-3.61v-.27c0-1.26,0-2.51.1-3.76.1-1.87.23-3.73.4-5.59.11-1.25.28-2.49.49-3.73.29-1.66.63-3.32,1-5,.32-1.34.69-2.67,1.1-4s.9-2.71,1.41-4,1.06-2.57,1.65-3.82,1.2-2.39,1.86-3.54,1.42-2.36,2.19-3.51,1.51-2.15,2.33-3.18,1.41-1.74,2.16-2.58,1.6-1.76,2.43-2.6c1-1,2-1.94,3.06-2.86s2-1.65,3.05-2.41,2-1.36,3-2q1.91-1.17,3.87-2.2c1.35-.7,2.72-1.37,4.11-2,1.09-.5,2.2-.94,3.33-1.35s2.56-.86,3.87-1.22,2.87-.74,4.32-1,3.1-.58,4.66-.82c1.37-.21,2.74-.38,4.12-.51s2.83-.24,4.24-.31,2.86-.11,4.28-.11,2.86,0,4.28.11,3.12.22,4.67.39,2.87.36,4.3.62,2.77.54,4.14.89,2.53.68,3.77,1.08c1.41.46,2.8,1,4.17,1.51s2.66,1.1,4,1.72,2.33,1.15,3.47,1.79q2.17,1.22,4.26,2.6a30.46,30.46,0,0,1,2.68,2q1.73,1.44,3.41,2.92c1,.88,2,1.78,3,2.68l.54.5.47.42a28.89,28.89,0,0,1,2,2.11c1.23,1.43,2.42,2.91,3.57,4.41.85,1.13,1.67,2.28,2.45,3.46s1.47,2.3,2.14,3.48,1.27,2.31,1.84,3.5,1.21,2.61,1.76,3.94,1.06,2.71,1.52,4.09.81,2.56,1.15,3.85c.46,1.74.85,3.49,1.19,5.25a27.27,27.27,0,0,1,.4,3.11c.11,1.47.2,2.94.29,4.41s.19,3,.3,4.45c0,.2,0,.4,0,.6s0,.38,0,.57a21.89,21.89,0,0,1,0,2.92q-.19,3.2-.6,6.36c-.18,1.48-.41,3-.68,4.43s-.56,2.8-.9,4.18-.74,2.76-1.19,4.11-.89,2.52-1.4,3.75c-.45,1.05-.93,2.09-1.45,3.11q-.95,1.82-2,3.57c-.73,1.23-1.51,2.43-2.34,3.61s-1.57,2.14-2.43,3.16-1.8,2.07-2.77,3-2.07,2-3.16,2.9c-.49.41-1,.81-1.52,1.19-1.82,1.35-3.66,2.68-5.5,4a25.93,25.93,0,0,1-2.22,1.41c-1.42.8-2.85,1.55-4.3,2.27l16.88,27h37.87v2.76l-.34,9.11-.92,8.61-.92,4.76-2.25,8.44-3.09,8.19-1.51,3.26,29.34,50.07ZM3717.8,2850h-51v168.51h-71.22V2850h-51v-69.46h173.2Zm200.61,0H3873.1c-2.88.16-7,.23-10,2.52a11.39,11.39,0,0,0-4.22,8.84,12.31,12.31,0,0,0,5.78,10.19c2.76,1.55,6.06,1.42,8.4,1.44h42.3V2926h-49c-2.89.15-7,.23-10,2.52a11.37,11.37,0,0,0-4.22,8.83,12.32,12.32,0,0,0,5.78,10.19c2.76,1.56,6.07,1.42,8.41,1.44h52v69.46H3869q-3.28,0-6.57-.08c-1.24,0-2.48-.09-3.71-.17l-8.17-.53-.69,0c-1.51-.14-3-.31-4.52-.51-1-.13-2.06-.3-3.09-.5l-.85-.16-1.58-.34c-1.39-.3-2.77-.63-4.14-1s-2.88-.8-4.3-1.25-2.58-.87-3.84-1.37c-1.41-.56-2.81-1.16-4.18-1.81-.61-.28-1.21-.58-1.81-.88s-1.25-.63-1.87-1c-1.12-.59-2.22-1.23-3.29-1.9-1.46-.91-2.9-1.87-4.32-2.86-1.13-.8-2.24-1.64-3.32-2.51s-2.27-1.92-3.36-2.93-2.18-2.08-3.21-3.17-1.8-2-2.64-3q-1.71-2.1-3.3-4.27c-.61-.83-1.18-1.7-1.72-2.59l-.11-.19-.14-.22c-.66-1.11-1.3-2.22-1.91-3.34q-1.22-2.21-2.35-4.44a29.17,29.17,0,0,1-1.41-3.19q-.9-2.39-1.6-4.83c-.18-.63-.34-1.27-.47-1.92q-.64-3.16-1.2-6.36a18.42,18.42,0,0,1-.27-2.34c0-.71-.06-1.41-.07-2.12v-98c0-.19,0-.38,0-.57,0-1.32.07-2.65.16-4,.19-3,.39-5.93.59-8.89,0-.33,0-.65.08-1,.13-1.43.28-2.86.46-4.29s.39-2.89.62-4.32.48-2.72.77-4.07c.24-1.1.51-2.2.82-3.29s.73-2.46,1.13-3.68c.27-.81.56-1.62.88-2.42l.06-.14c0-.09.07-.19.11-.28.44-1.1.92-2.18,1.44-3.25q1-2.09,2.15-4.1a34.41,34.41,0,0,1,2-3.1c.91-1.29,1.87-2.55,2.89-3.76s2.19-2.54,3.34-3.77c.88-1,1.81-1.86,2.76-2.75.72-.67,1.46-1.33,2.21-2s1.52-1.31,2.3-2c1.05-.85,2.12-1.67,3.21-2.47s2.3-1.61,3.48-2.37,2.45-1.5,3.72-2.17,2.56-1.29,3.89-1.85q2.39-1,4.81-1.9c1.17-.43,2.35-.83,3.55-1.19l1.67-.49.92-.26q1.52-.42,3.06-.75c1.37-.31,2.74-.58,4.13-.84s2.58-.45,3.88-.64,2.76-.38,4.14-.53c1.8-.2,3.6-.37,5.4-.52,1.18-.1,2.36-.18,3.54-.23l1.29,0,8.41-.29,1,0,3-.06h45.64ZM4163,2892v127h-69V2874.55c-.2-3.64-.29-8.79-3.18-12.57a14.34,14.34,0,0,0-11.14-5.33,15.55,15.55,0,0,0-12.86,7.3c-2,3.48-1.8,7.65-1.82,10.6V2900h18v63h-18v56h-73V2892l-.29-.29q0-3.45,0-6.91c0-1.26,0-2.52.09-3.79q.15-4.26.31-8.53c0-.19,0-.38,0-.58.09-2.07.19-4.13.31-6.2,0-.41.06-.83.11-1.24,0-.14,0-.28,0-.41.09-.79.19-1.57.28-2.35.2-1.58.39-3.16.58-4.74l.51-4.12c.19-1.5.43-3,.72-4.48.26-1.33.58-2.65.95-4,.07-.25.14-.5.22-.76s.19-.66.28-1c.41-1.43.83-2.86,1.25-4.29s1-3.16,1.43-4.74c.34-1.12.72-2.23,1.13-3.32q1-2.54,2-5c.56-1.28,1.14-2.55,1.76-3.8s1.36-2.67,2.09-4,1.36-2.39,2.08-3.55,1.54-2.45,2.35-3.64,1.67-2.42,2.55-3.59,1.56-2,2.38-3,1.7-2,2.58-2.92,1.93-2,2.94-3c.81-.79,1.64-1.57,2.49-2.33s1.67-1.47,2.52-2.18,2-1.62,3.05-2.37c1.22-.89,2.46-1.74,3.72-2.57s2.34-1.47,3.55-2.15,2.41-1.33,3.64-1.94,2.47-1.18,3.73-1.72,2.57-1.06,3.88-1.54,2.71-.95,4.08-1.38,2.67-.79,4-1.13,3-.7,4.44-1c1.32-.26,2.66-.49,4-.67,1.67-.23,3.34-.42,5-.58,1.3-.12,2.61-.21,3.92-.26l2.32-.06,2.45,0c1.36,0,2.73,0,4.09.1,1.56.07,3.12.18,4.68.32,1.3.11,2.58.27,3.87.47,1.59.25,3.17.53,4.74.87s3,.66,4.41,1c1.28.34,2.54.72,3.78,1.13,1.42.47,2.83,1,4.23,1.51s2.55,1,3.8,1.58c.91.41,1.82.83,2.72,1.27s1.76.87,2.63,1.32c1.16.61,2.29,1.25,3.41,1.92,1.34.81,2.65,1.64,3.94,2.51s2.32,1.61,3.43,2.47,2.26,1.78,3.34,2.72,2.13,1.88,3.16,2.87,2,2,3,3.06c1.14,1.21,2.24,2.44,3.33,3.69.81,1,1.6,1.92,2.35,2.91.59.78,1.17,1.56,1.73,2.36s1.15,1.65,1.7,2.49c.78,1.18,1.52,2.38,2.23,3.6s1.44,2.54,2.12,3.84,1.25,2.48,1.83,3.74,1.2,2.68,1.76,4,1.15,2.89,1.69,4.34c.47,1.28.91,2.56,1.32,3.86.48,1.49.93,3,1.34,4.49.34,1.2.64,2.4.92,3.61s.55,2.48.79,3.72c.2,1,.38,2,.55,3,.21,1.29.41,2.58.59,3.87s.34,2.49.49,3.74c.19,1.56.36,3.13.52,4.7.12,1.24.23,2.49.32,3.74.12,1.72.23,3.43.33,5.15.07,1.38.13,2.75.17,4.13,0,.27,0,.55,0,.82.08,3.13.16,6.25.23,9.38l0,1.49c0,1.34,0,2.68,0,4Z" transform="translate(-1322.59 -1198.75)"/><circle class="cls-1" cx="699.31" cy="1700.87" r="53.91"/><path class="cls-1" d="M3242,2924a12.69,12.69,0,0,0-3,2.64c-.4.48-.79,1-1.18,1.46-.11.15-.22.3-.32.46a14.16,14.16,0,0,0-1.54,3.27,22.37,22.37,0,0,0-1,4.42c-.08.71-.14,1.42-.19,2.13s-.06,1.48-.06,2.22a35.41,35.41,0,0,0,.3,4.6,30.93,30.93,0,0,0,.87,4.26,28.71,28.71,0,0,0,1.49,4.1,22.62,22.62,0,0,0,1.94,3.42c.26.38.53.76.81,1.13s.73.93,1.11,1.38a21.84,21.84,0,0,0,3.15,3.08,19.36,19.36,0,0,0,3.45,2.19,22.22,22.22,0,0,0,4,1.49,20.72,20.72,0,0,0,4.07.68l1,.06.84,0a25.92,25.92,0,0,0,5-.34,6.3,6.3,0,0,0,2.21-.83l6.19-3.67L3246.24,2922A17.44,17.44,0,0,0,3242,2924Z" transform="translate(-1322.59 -1198.75)"/><path class="cls-1" d="M3271.32,2822.72a8.75,8.75,0,0,0-.72-.89,7.71,7.71,0,0,0-.7-.7,10.34,10.34,0,0,0-2.87-1.77,18.92,18.92,0,0,0-4.49-1.23c-.62-.1-1.25-.16-1.88-.21s-1.31-.05-2-.05a21.89,21.89,0,0,0-5.09.69,10.84,10.84,0,0,0-3.35,1.49c-.25.16-.49.34-.72.52s-.42.37-.62.56a8.76,8.76,0,0,0-1.9,2.83,16.56,16.56,0,0,0-1.19,4.53c-.07.54-.12,1.09-.15,1.64,0,.37,0,.74,0,1.12a22.19,22.19,0,0,0,.55,4.44,17,17,0,0,0,1.29,3.67c.1.22.21.43.33.65.36.67.72,1.35,1.09,2a31.12,31.12,0,0,0,1.77,2.87c.81,1.17,1.67,2.3,2.58,3.4l6,6.6,6.69-6.71a30.53,30.53,0,0,0,2.56-3.12,29.5,29.5,0,0,0,2.14-3.41q1.1-2.31,2-4.7a13.94,13.94,0,0,0,.68-2.37c.1-.53.17-1.07.22-1.61.07-.69.1-1.38.11-2.07a16.29,16.29,0,0,0-.62-4.65A11.19,11.19,0,0,0,3271.32,2822.72Z" transform="translate(-1322.59 -1198.75)"/></svg>