<?xml version="1.0" encoding="utf-8"?>
<!-- Generator: Adobe Illustrator 23.1.1, SVG Export Plug-In . SVG Version: 6.00 Build 0)  -->
<svg version="1.1" id="Net" xmlns="http://www.w3.org/2000/svg" xmlns:xlink="http://www.w3.org/1999/xlink" x="0px" y="0px"
	 viewBox="0 0 3109.5 1858.4" style="enable-background:new 0 0 3109.5 1858.4;" xml:space="preserve">
<style type="text/css">
	.st0{fill:#FFFFFF;}
</style>
<path class="st0" d="M1248.5,114.2c-7.7-17.8-14.1-35.9-13.4-54.3c0.7-8,0.7-14.6,6-22.1c15.4,20,34.6,32.2,52.5,45.8
	c16.9,12.9,34.2,25.3,48.9,40.8c21.3,22.4,23.2,49.4,4.8,77.6c-21.5,4.4-38.9-5.7-54.3-20C1272.7,163.1,1259.4,139.4,1248.5,114.2z"
	/>
<path class="st0" d="M1369,191.5c3.5-10,4.9-15.4,5.5-21c2.4-22.1-5.8-40.4-20.7-56c-17.1-17.9-37.5-31.8-57.1-46.7
	c-17.5-13.2-34.8-26.6-47.6-43.2c14.6-22.5,31-28.8,53.6-22.2c25.6,7.6,47.2,28.1,61.4,49.5c19.7,31.7,34.1,69,25.9,110.8
	c-2.7,9-7.1,20-17.3,27C1370.8,190.9,1369.8,191.4,1369,191.5z"/>
<path class="st0" d="M1538.4,90.9c-89.7,7.9-142.6,49.7-164.5,132C1452.8,221.2,1513.5,170.1,1538.4,90.9z"/>
<path class="st0" d="M2070.4,522.1c-26.6-94.1-119.5-147.4-207.4-118.9c-87.9,28.5-137.6,127.8-111,222
	c26.6,94.1,119.5,147.4,207.4,118.9c67.4-21.8,114.6-86.6,117.9-161.9l243.1,6.4c-7.1,190.7-147.6,350.2-336.7,382.3
	c-220.5,37.4-429.8-110.1-467.4-329.5C1478.7,422,1627,213.8,1847.5,176.3s429.8,110.1,467.4,329.5L2070.4,522.1z"/>
<polygon class="st0" points="2841.8,474.9 2635.9,474.9 2635.9,189.7 2409.7,189.7 2409.7,957.2 2635.9,957.2 2635.9,681.5 
	2841.8,681.5 "/>
<path class="st0" d="M1409.2,957.2h-227.9V463.6c-0.2-20.9-1.4-34.4-9-45.5c-9-13.2-27-22.9-44.4-22.4c-14.7,0.4-29,8.2-37.3,18.5
	c-10,12.4-11.5,28.6-11.8,49.5v108.6h62.7v200.5h-62.7v184.5H850.7V463.6c0.8-25.6,1.7-51.2,6.2-76.9
	c11.5-65.3,47.1-130.5,99.7-169.3c48.2-35.6,110.8-49,173.3-49c62.6,0,125.1,13.4,173.3,49c52.6,38.8,88.1,104,99.7,169.3
	c4.5,25.6,5.4,51.2,6.2,76.9V957.2z"/>
<polyline class="st0" points="515.8,1160.5 452.2,997.2 267.8,997.2 515.8,1512.2 763.7,997.2 579.3,997.2 515.8,1160.5 "/>
<rect x="1116.2" y="997.2" class="st0" width="172.3" height="515"/>
<path class="st0" d="M1889.4,1361.8c17.7,0,55.2,0,132.9,0c0,50.1,0,100.2,0,150.3c-75.9,0-111.5,0-147.2,0c-4.7,0-9.5-0.1-14.2-0.2
	c-2.7-0.1-5.4-0.2-8-0.4c-5.9-0.4-11.8-0.8-17.7-1.1c-0.5,0-1-0.1-1.5-0.1c-3.3-0.3-6.5-0.7-9.8-1.1c-2.2-0.3-4.5-0.7-6.7-1.1
	c-0.6-0.1-1.2-0.2-1.8-0.4c-1.1-0.2-2.3-0.5-3.4-0.7c-3-0.7-6-1.4-9-2.2c-3.1-0.8-6.2-1.7-9.3-2.7c-2.8-0.9-5.6-1.9-8.3-3
	c-3.1-1.2-6.1-2.5-9-3.9c-1.3-0.6-2.6-1.2-3.9-1.9c-1.4-0.7-2.7-1.4-4-2.1c-2.4-1.3-4.8-2.7-7.1-4.1c-3.2-2-6.3-4.1-9.3-6.2
	c-2.5-1.7-4.9-3.5-7.2-5.4c-2.5-2-4.9-4.1-7.3-6.3c-2.4-2.2-4.7-4.5-6.9-6.9c-2-2.1-3.9-4.3-5.7-6.5c-2.5-3-4.8-6.1-7.1-9.2
	c-1.3-1.8-2.6-3.7-3.7-5.6c-0.1-0.1-0.2-0.3-0.2-0.4c-0.1-0.2-0.2-0.3-0.3-0.5c-1.4-2.4-2.8-4.8-4.1-7.2c-1.7-3.2-3.4-6.4-5.1-9.6
	c-1.1-2.2-2.2-4.6-3.1-6.9c-1.3-3.4-2.4-6.9-3.5-10.4c-0.4-1.4-0.7-2.8-1-4.1c-0.9-4.6-1.8-9.2-2.6-13.8c-0.3-1.7-0.5-3.4-0.6-5.1
	c-0.1-1.5-0.1-3-0.2-4.6c0-70.7,0-141.4,0-212.1c0-0.4,0-0.8,0-1.2c0-2.9,0.2-5.7,0.3-8.6c0.4-6.4,0.8-12.8,1.3-19.2
	c0-0.7,0.1-1.4,0.2-2.1c0.3-3.1,0.6-6.2,1-9.3c0.4-3.1,0.8-6.2,1.3-9.3c0.5-2.9,1-5.9,1.7-8.8c0.5-2.4,1.1-4.8,1.8-7.1
	c0.8-2.7,1.6-5.3,2.4-8c0.6-1.8,1.2-3.5,1.9-5.2c0-0.1,0.1-0.2,0.1-0.3c0.1-0.2,0.2-0.4,0.2-0.6c1-2.4,2-4.7,3.1-7
	c1.5-3,3-6,4.6-8.9c1.3-2.3,2.7-4.5,4.2-6.7c2-2.8,4.1-5.5,6.3-8.1c2.3-2.8,4.7-5.5,7.2-8.2c1.9-2.1,3.9-4,6-6
	c1.6-1.5,3.2-2.9,4.8-4.3c1.6-1.4,3.3-2.8,5-4.2c2.3-1.8,4.6-3.6,6.9-5.3c2.5-1.8,5-3.5,7.5-5.1c2.6-1.7,5.3-3.2,8-4.7
	c2.7-1.4,5.6-2.8,8.4-4c3.4-1.5,6.9-2.8,10.4-4.1c2.5-0.9,5.1-1.8,7.7-2.6c1.2-0.4,2.4-0.7,3.6-1.1c0.7-0.2,1.3-0.4,2-0.6
	c2.2-0.6,4.4-1.1,6.6-1.6c3-0.7,5.9-1.3,8.9-1.8c2.8-0.5,5.6-1,8.4-1.4c3-0.4,6-0.8,9-1.1c3.9-0.4,7.8-0.8,11.7-1.1
	c2.6-0.2,5.1-0.4,7.7-0.5c0.9,0,1.9-0.1,2.8-0.1c6.1-0.2,12.1-0.4,18.2-0.6c0.7,0,1.4,0,2.1-0.1c2.1,0,4.3-0.1,6.4-0.1
	c32.9,0,65.8,0,139,0c0,50.1,0,100.2,0,150.3c-72.9,0-105.6,0-118.5,0c-6.2,0.3-15.1,0.5-21.6,5.5c-5.4,4.1-9.2,11.6-9.1,19.1
	c0,8.9,5.5,18.1,12.5,22.1c6,3.4,13.1,3.1,18.2,3.1c10.7,0,41.2,0,111.9,0c0,38.3,0,76.6,0,114.9c-75.6,0-110.9,0-126.4,0
	c-6.2,0.3-15.1,0.5-21.6,5.5c-5.4,4.1-9.2,11.6-9.1,19.1c0,8.9,5.5,18.1,12.5,22.1C1877.2,1362.1,1884.3,1361.8,1889.4,1361.8z"/>
<polygon class="st0" points="2841.8,997.2 2409.7,997.2 2409.7,1166.5 2539.6,1166.5 2539.6,1512.2 2711.9,1512.2 2711.9,1166.5 
	2841.8,1166.5 "/>
<g>
	<path class="st0" d="M3109.4,189.7h-227.8v1353.6H227.9V395.6h0.1l241.7,0.1c15.3,0.6,28.7,0.5,38.8,7.8c8.8,6.3,15.1,18,15.3,30
		c0.3,14.3-8,29-19.1,35.7c-9.4,5.6-20.8,5.4-35,5.8c-41.8,0-122.8,0-201.7,0c0,68.9,0,137.7,0,206.6c78.3,0,156.6,0,234.9,0
		c16.1,0.7,30.1,0.3,40.7,7.8c8.8,6.3,15.1,18,15.3,30c0.3,14.3-8,29-19.1,35.7c-9.4,5.6-20.8,5.4-35,5.8c-78.9,0-157.9,0-236.8,0
		c0,65.4,0,130.9,0,196.3h237.6c65.6-5,131.3-10.1,178.7-45.4c37.1-27.5,63-73.5,73.9-123.5c13.7-63,3.3-132.5-34.4-178
		c-22.2-26.8-53.9-45.2-85.5-63.7c19.3-17.6,38.6-35.1,53.2-56.2c20.9-30.2,32.1-67.7,31.9-106.3c-0.2-56.3-24.5-115-64.4-148.2
		c-47.1-39.1-116-42.6-184.9-46.2H0v1664.7v4h3109.5v-4L3109.4,189.7L3109.4,189.7z M413.7,1822.9
		c-67.4,11.5-131.3-33.8-142.8-101.2c-11.5-67.4,33.8-131.3,101.2-142.8c67.4-11.5,131.3,33.8,142.8,101.2l-74.6,4.9
		c-8.8-25.8-36.8-39.6-62.6-30.8c-25.8,8.8-39.6,36.8-30.8,62.6c8.8,25.8,36.8,39.6,62.6,30.8c20-6.8,33.5-25.6,33.5-46.7h73.7
		C516.7,1761.2,473.2,1812.8,413.7,1822.9z M699.3,1824.5c-68.3,0-123.6-55.3-123.6-123.6c0-68.3,55.3-123.6,123.6-123.6
		s123.6,55.3,123.6,123.6C822.9,1769.1,767.6,1824.5,699.3,1824.5z M996.5,1657.2c-0.6-1.5-1.3-3-2.2-4.4c-0.7-1.2-1.6-2.2-2.6-3.2
		c-0.6-0.5-1.2-1.1-1.8-1.6c-0.2-0.2-0.4-0.3-0.6-0.5c-1-0.8-2.2-1.4-3.3-1.8c-1.4-0.5-2.9-0.9-4.4-1.1c-0.4,0-0.7-0.1-1.1-0.1
		c-0.5,0-1-0.1-1.5-0.1c-1.6,0-3.2,0.2-4.7,0.6c-1.2,0.4-2.4,0.9-3.4,1.7c-0.6,0.4-1.1,0.9-1.6,1.4c-0.4,0.4-0.7,0.9-1,1.4
		c-0.5,1-1,2-1.4,3c-0.4,1-0.6,2-0.8,3.1c-0.2,1-0.3,2-0.4,3c-0.2,2.1-0.4,4.3-0.6,6.4c0,0.5-0.1,1.1-0.1,1.6c0,1.1,0,2.2,0,3.2
		v22.8h22v63.4h-22v63.4h-72.8v-150c0-2,0-4.1,0.1-6.1c0-1.1,0.1-2.2,0.2-3.4c0.3-2.6,0.6-5.2,0.9-7.9c0-0.4,0.1-0.7,0.1-1.1
		c0.2-1.4,0.5-2.8,0.7-4.1c0.3-1.5,0.6-2.9,1-4.4c0.3-1.4,0.7-2.8,1.1-4.1c0.4-1.4,0.8-2.7,1.3-4.1c0.4-1.3,0.9-2.5,1.4-3.7
		c0.5-1.3,1.1-2.6,1.6-3.9c0.6-1.3,1.2-2.6,1.8-3.8c0.6-1.2,1.2-2.3,1.9-3.5c0.7-1.2,1.4-2.3,2.1-3.5c0.7-1.1,1.5-2.2,2.2-3.3
		c0.9-1.2,1.8-2.4,2.7-3.6c0.7-1,1.5-1.9,2.3-2.8c0.6-0.6,1.1-1.3,1.7-1.9c0.7-0.7,1.3-1.4,2-2.1c0.9-1,1.9-1.9,2.8-2.8
		c1-1,2.1-1.9,3.2-2.8c1-0.8,1.9-1.6,2.9-2.3c1.2-0.9,2.4-1.7,3.6-2.5c1.2-0.8,2.3-1.5,3.5-2.2c1.1-0.7,2.3-1.3,3.4-2
		c1.2-0.6,2.4-1.3,3.6-1.8c1.2-0.6,2.5-1.1,3.7-1.7c1.3-0.6,2.7-1.1,4-1.6c1.3-0.5,2.5-0.9,3.8-1.3c1.3-0.4,2.6-0.8,3.9-1.1
		c1.4-0.4,2.8-0.7,4.3-1c1.6-0.3,3.2-0.6,4.8-0.9c1.3-0.2,2.6-0.4,3.9-0.6c1.6-0.2,3.3-0.4,4.9-0.5c1.4-0.1,2.8-0.2,4.2-0.2
		c0.9,0,1.8,0,2.7-0.1c1,0,2.1,0,3.1,0c1.6,0,3.2,0,4.7,0.1c1.5,0.1,3,0.1,4.6,0.2c1.2,0.1,2.5,0.2,3.7,0.4c1.7,0.2,3.4,0.5,5.2,0.8
		c1.5,0.3,3,0.6,4.4,0.9c1.3,0.3,2.6,0.6,3.9,1c1.2,0.3,2.4,0.7,3.6,1.1c1.4,0.5,2.8,1,4.2,1.5c1.3,0.5,2.6,1,3.9,1.6
		c1.1,0.5,2.2,1,3.3,1.6c1.1,0.6,2.2,1.2,3.3,1.8c1.3,0.8,2.6,1.6,3.9,2.4c1.3,0.9,2.5,1.7,3.7,2.6c1,0.8,2,1.6,3,2.4
		c1.1,0.9,2.1,1.8,3.2,2.8c1.1,1,2.1,2,3.1,3c0.3,0.3,0.7,0.7,1,1c1.7,1.8,3.3,3.7,5,5.6c0.6,0.7,1.1,1.3,1.7,2c1,1.4,2,2.7,3,4.1
		L996.5,1657.2z M1206.4,1657.2c-0.6-1.5-1.3-3-2.2-4.4c-0.7-1.2-1.6-2.2-2.6-3.2c-0.6-0.5-1.2-1.1-1.8-1.6
		c-0.2-0.2-0.4-0.3-0.6-0.5c-1-0.8-2.2-1.4-3.3-1.8c-1.4-0.5-2.9-0.9-4.4-1.1c-0.4,0-0.7-0.1-1.1-0.1c-0.5,0-1-0.1-1.5-0.1
		c-1.6,0-3.2,0.2-4.7,0.6c-1.2,0.4-2.4,0.9-3.4,1.7c-0.6,0.4-1.1,0.9-1.6,1.4c-0.4,0.4-0.7,0.9-1,1.4c-0.5,1-1,2-1.4,3
		c-0.4,1-0.6,2-0.8,3.1c-0.2,1-0.3,2-0.4,3c-0.2,2.1-0.4,4.3-0.6,6.4c0,0.5-0.1,1.1-0.1,1.6c0,1.1,0,2.2,0,3.2v22.8h22v63.4h-22
		v63.4h-72.8v-150c0-2,0-4.1,0.1-6.1c0-1.1,0.1-2.2,0.2-3.4c0.3-2.6,0.6-5.2,0.9-7.9c0-0.4,0.1-0.7,0.1-1.1c0.2-1.4,0.5-2.8,0.7-4.1
		c0.3-1.5,0.6-2.9,1-4.4c0.3-1.4,0.7-2.8,1.1-4.1c0.4-1.4,0.8-2.7,1.3-4.1c0.4-1.3,0.9-2.5,1.4-3.7c0.5-1.3,1.1-2.6,1.6-3.9
		c0.6-1.3,1.2-2.6,1.8-3.8c0.6-1.2,1.2-2.3,1.9-3.5c0.7-1.2,1.4-2.3,2.1-3.5c0.7-1.1,1.5-2.2,2.2-3.3c0.9-1.2,1.8-2.4,2.7-3.6
		c0.7-1,1.5-1.9,2.3-2.8c0.6-0.6,1.1-1.3,1.7-1.9c0.7-0.7,1.3-1.4,2-2.1c0.9-1,1.9-1.9,2.8-2.8c1-1,2.1-1.9,3.2-2.8
		c1-0.8,1.9-1.6,2.9-2.3c1.2-0.9,2.4-1.7,3.6-2.5c1.2-0.8,2.3-1.5,3.5-2.2c1.1-0.7,2.3-1.3,3.4-2c1.2-0.6,2.4-1.3,3.6-1.8
		c1.2-0.6,2.5-1.1,3.7-1.7c1.3-0.6,2.7-1.1,4-1.6c1.3-0.5,2.5-0.9,3.8-1.3c1.3-0.4,2.6-0.8,3.9-1.1c1.4-0.4,2.8-0.7,4.3-1
		c1.6-0.3,3.2-0.6,4.8-0.9c1.3-0.2,2.6-0.4,3.9-0.6c1.6-0.2,3.3-0.4,4.9-0.5c1.4-0.1,2.8-0.2,4.2-0.2c0.9,0,1.8,0,2.7-0.1
		c1,0,2.1,0,3.1,0c1.6,0,3.2,0,4.7,0.1c1.5,0.1,3,0.1,4.6,0.2c1.2,0.1,2.5,0.2,3.7,0.4c1.7,0.2,3.4,0.5,5.2,0.8
		c1.5,0.3,3,0.6,4.4,0.9c1.3,0.3,2.6,0.6,3.9,1c1.2,0.3,2.4,0.7,3.6,1.1c1.4,0.5,2.8,1,4.2,1.5c1.3,0.5,2.6,1,3.9,1.6
		c1.1,0.5,2.2,1,3.3,1.6c1.1,0.6,2.2,1.2,3.3,1.8c1.3,0.8,2.6,1.6,3.9,2.4c1.3,0.9,2.5,1.7,3.7,2.6c1,0.8,2,1.6,3,2.4
		c1.1,0.9,2.1,1.8,3.2,2.8c1.1,1,2.1,2,3.1,3c0.3,0.3,0.7,0.7,1,1c1.7,1.8,3.3,3.7,5,5.6c0.6,0.7,1.1,1.3,1.7,2c1,1.4,2,2.7,3,4.1
		L1206.4,1657.2z M1442.2,1651.2c-15.1,0-30.2,0-45.3,0c-2.9,0.2-7,0.2-10,2.5c-2.5,1.9-4.2,5.3-4.2,8.8c0,4.1,2.5,8.3,5.8,10.2
		c2.8,1.6,6.1,1.4,8.4,1.4c14.1,0,28.2,0,42.3,0c0,17.7,0,35.4,0,53.1c-16.3,0-32.7,0-49,0c-2.9,0.2-7,0.2-10,2.5
		c-2.5,1.9-4.2,5.3-4.2,8.8c0,4.1,2.5,8.3,5.8,10.2c2.8,1.6,6.1,1.4,8.4,1.4c17.3,0,34.7,0,52,0c0,23.2,0,46.3,0,69.5
		c-16.5,0-32.9,0-49.4,0c-2.2,0-4.4,0-6.6-0.1c-1.2,0-2.5-0.1-3.7-0.2c-2.7-0.2-5.4-0.4-8.2-0.5c-0.2,0-0.5,0-0.7-0.1
		c-1.5-0.1-3-0.3-4.5-0.5c-1-0.1-2.1-0.3-3.1-0.5c-0.3-0.1-0.6-0.1-0.9-0.2c-0.5-0.1-1-0.2-1.6-0.3c-1.4-0.3-2.8-0.6-4.1-1
		c-1.4-0.4-2.9-0.8-4.3-1.3c-1.3-0.4-2.6-0.9-3.8-1.4c-1.4-0.6-2.8-1.2-4.2-1.8c-0.6-0.3-1.2-0.6-1.8-0.9c-0.6-0.3-1.3-0.6-1.9-1
		c-1.1-0.6-2.2-1.2-3.3-1.9c-1.5-0.9-2.9-1.9-4.3-2.9c-1.1-0.8-2.2-1.6-3.3-2.5c-1.2-0.9-2.3-1.9-3.4-2.9c-1.1-1-2.2-2.1-3.2-3.2
		c-0.9-1-1.8-2-2.6-3c-1.1-1.4-2.2-2.8-3.3-4.3c-0.6-0.8-1.2-1.7-1.7-2.6c0-0.1-0.1-0.1-0.1-0.2c0-0.1-0.1-0.2-0.1-0.2
		c-0.7-1.1-1.3-2.2-1.9-3.3c-0.8-1.5-1.6-2.9-2.3-4.4c-0.5-1-1-2.1-1.4-3.2c-0.6-1.6-1.1-3.2-1.6-4.8c-0.2-0.6-0.3-1.3-0.5-1.9
		c-0.4-2.1-0.8-4.2-1.2-6.4c-0.1-0.8-0.2-1.6-0.3-2.3c0-0.7-0.1-1.4-0.1-2.1c0-32.7,0-65.3,0-98c0-0.2,0-0.4,0-0.6
		c0-1.3,0.1-2.7,0.2-4c0.2-3,0.4-5.9,0.6-8.9c0-0.3,0-0.6,0.1-1c0.1-1.4,0.3-2.9,0.5-4.3c0.2-1.4,0.4-2.9,0.6-4.3
		c0.2-1.4,0.5-2.7,0.8-4.1c0.2-1.1,0.5-2.2,0.8-3.3c0.4-1.2,0.7-2.5,1.1-3.7c0.3-0.8,0.6-1.6,0.9-2.4c0,0,0-0.1,0.1-0.1
		c0-0.1,0.1-0.2,0.1-0.3c0.4-1.1,0.9-2.2,1.4-3.3c0.7-1.4,1.4-2.8,2.1-4.1c0.6-1.1,1.2-2.1,2-3.1c0.9-1.3,1.9-2.5,2.9-3.8
		c1.1-1.3,2.2-2.5,3.3-3.8c0.9-0.9,1.8-1.9,2.8-2.8c0.7-0.7,1.5-1.3,2.2-2c0.8-0.7,1.5-1.3,2.3-1.9c1-0.9,2.1-1.7,3.2-2.5
		c1.1-0.8,2.3-1.6,3.5-2.4c1.2-0.8,2.4-1.5,3.7-2.2c1.3-0.7,2.6-1.3,3.9-1.8c1.6-0.7,3.2-1.3,4.8-1.9c1.2-0.4,2.4-0.8,3.5-1.2
		c0.6-0.2,1.1-0.3,1.7-0.5c0.3-0.1,0.6-0.2,0.9-0.3c1-0.3,2-0.5,3.1-0.8c1.4-0.3,2.7-0.6,4.1-0.8c1.3-0.2,2.6-0.5,3.9-0.6
		c1.4-0.2,2.8-0.4,4.1-0.5c1.8-0.2,3.6-0.4,5.4-0.5c1.2-0.1,2.4-0.2,3.5-0.2c0.4,0,0.9,0,1.3-0.1c2.8-0.1,5.6-0.2,8.4-0.3
		c0.3,0,0.6,0,1,0c1,0,2,0,3-0.1c15.2,0,30.4,0,45.6,0C1442.2,1604.9,1442.2,1628.1,1442.2,1651.2z M1645.9,1651.2
		c-15.1,0-30.2,0-45.3,0c-2.9,0.2-7,0.2-10,2.5c-2.5,1.9-4.2,5.3-4.2,8.8c0,4.1,2.5,8.3,5.8,10.2c2.8,1.6,6.1,1.4,8.4,1.4
		c14.1,0,28.2,0,42.3,0c0,17.7,0,35.4,0,53.1c-16.3,0-32.7,0-49,0c-2.9,0.2-7,0.2-10,2.5c-2.5,1.9-4.2,5.3-4.2,8.8
		c0,4.1,2.5,8.3,5.8,10.2c2.8,1.6,6.1,1.4,8.4,1.4c17.3,0,34.7,0,52,0c0,23.2,0,46.3,0,69.5c-16.5,0-32.9,0-49.4,0
		c-2.2,0-4.4,0-6.6-0.1c-1.2,0-2.5-0.1-3.7-0.2c-2.7-0.2-5.4-0.4-8.2-0.5c-0.2,0-0.5,0-0.7-0.1c-1.5-0.1-3-0.3-4.5-0.5
		c-1-0.1-2.1-0.3-3.1-0.5c-0.3-0.1-0.6-0.1-0.9-0.2c-0.5-0.1-1-0.2-1.6-0.3c-1.4-0.3-2.8-0.6-4.1-1c-1.4-0.4-2.9-0.8-4.3-1.3
		c-1.3-0.4-2.6-0.9-3.8-1.4c-1.4-0.6-2.8-1.2-4.2-1.8c-0.6-0.3-1.2-0.6-1.8-0.9c-0.6-0.3-1.3-0.6-1.9-1c-1.1-0.6-2.2-1.2-3.3-1.9
		c-1.5-0.9-2.9-1.9-4.3-2.9c-1.1-0.8-2.2-1.6-3.3-2.5c-1.2-0.9-2.3-1.9-3.4-2.9c-1.1-1-2.2-2.1-3.2-3.2c-0.9-1-1.8-2-2.6-3
		c-1.1-1.4-2.2-2.8-3.3-4.3c-0.6-0.8-1.2-1.7-1.7-2.6c0-0.1-0.1-0.1-0.1-0.2c0-0.1-0.1-0.2-0.1-0.2c-0.7-1.1-1.3-2.2-1.9-3.3
		c-0.8-1.5-1.6-2.9-2.3-4.4c-0.5-1-1-2.1-1.4-3.2c-0.6-1.6-1.1-3.2-1.6-4.8c-0.2-0.6-0.3-1.3-0.5-1.9c-0.4-2.1-0.8-4.2-1.2-6.4
		c-0.1-0.8-0.2-1.6-0.3-2.3c0-0.7-0.1-1.4-0.1-2.1c0-32.7,0-65.3,0-98c0-0.2,0-0.4,0-0.6c0-1.3,0.1-2.7,0.2-4c0.2-3,0.4-5.9,0.6-8.9
		c0-0.3,0-0.6,0.1-1c0.1-1.4,0.3-2.9,0.5-4.3c0.2-1.4,0.4-2.9,0.6-4.3c0.2-1.4,0.5-2.7,0.8-4.1c0.2-1.1,0.5-2.2,0.8-3.3
		c0.4-1.2,0.7-2.5,1.1-3.7c0.3-0.8,0.6-1.6,0.9-2.4c0,0,0-0.1,0.1-0.1c0-0.1,0.1-0.2,0.1-0.3c0.4-1.1,0.9-2.2,1.4-3.3
		c0.7-1.4,1.4-2.8,2.1-4.1c0.6-1.1,1.2-2.1,2-3.1c0.9-1.3,1.9-2.5,2.9-3.8c1.1-1.3,2.2-2.5,3.3-3.8c0.9-0.9,1.8-1.9,2.8-2.8
		c0.7-0.7,1.5-1.3,2.2-2c0.8-0.7,1.5-1.3,2.3-1.9c1-0.9,2.1-1.7,3.2-2.5c1.1-0.8,2.3-1.6,3.5-2.4c1.2-0.8,2.4-1.5,3.7-2.2
		c1.3-0.7,2.6-1.3,3.9-1.8c1.6-0.7,3.2-1.3,4.8-1.9c1.2-0.4,2.4-0.8,3.5-1.2c0.6-0.2,1.1-0.3,1.7-0.5c0.3-0.1,0.6-0.2,0.9-0.3
		c1-0.3,2-0.5,3.1-0.8c1.4-0.3,2.7-0.6,4.1-0.8c1.3-0.2,2.6-0.5,3.9-0.6c1.4-0.2,2.8-0.4,4.1-0.5c1.8-0.2,3.6-0.4,5.4-0.5
		c1.2-0.1,2.4-0.2,3.5-0.2c0.4,0,0.9,0,1.3-0.1c2.8-0.1,5.6-0.2,8.4-0.3c0.3,0,0.6,0,1,0c1,0,2,0,3-0.1c15.2,0,30.4,0,45.6,0
		C1645.9,1604.9,1645.9,1628.1,1645.9,1651.2z M1985.4,1815l-7-12.1c-1.6,1.1-3.2,2.3-4.9,3.3c-0.9,0.6-1.9,1.2-2.8,1.7
		c-2.2,1.2-4.4,2.4-6.7,3.6c-0.3,0.2-0.7,0.3-1,0.5c-1.6,0.8-3.2,1.5-4.8,2.1c-0.9,0.4-1.9,0.7-2.8,1c-0.2,0.1-0.4,0.1-0.6,0.2
		c-0.2,0.1-0.5,0.1-0.7,0.2c-1.2,0.4-2.4,0.7-3.6,1c-1.6,0.4-3.1,0.8-4.7,1.2c-1.4,0.4-2.9,0.6-4.3,0.9c-1.4,0.2-2.9,0.4-4.3,0.5
		c-1.6,0.1-3.3,0.2-4.9,0.3c-1.3,0.1-2.7,0.1-4,0.1c-1.3,0-2.6,0-3.8-0.1c-1.7-0.1-3.4-0.2-5.1-0.3c-1.2-0.1-2.3-0.2-3.5-0.4
		c-1.7-0.3-3.3-0.6-5-0.9c-1.4-0.3-2.8-0.6-4.2-1c-1.3-0.3-2.6-0.7-3.8-1.2c-1.2-0.4-2.5-0.9-3.7-1.4c-1.3-0.5-2.7-1.1-4-1.7
		c-1.3-0.6-2.6-1.3-3.9-1.9c-1.2-0.6-2.3-1.3-3.5-2c-1.3-0.8-2.5-1.6-3.8-2.5c-1.1-0.8-2.1-1.6-3.2-2.4c-1.4-1.1-2.7-2.2-4-3.4
		c-0.9-0.7-1.7-1.5-2.5-2.3c-0.2-0.2-0.4-0.4-0.7-0.7c-0.2-0.2-0.5-0.5-0.7-0.7c-0.9-0.9-1.8-1.8-2.6-2.8c-1.1-1.2-2.2-2.5-3.3-3.8
		c-0.8-0.9-1.5-1.9-2.3-2.9c-0.9-1.3-1.8-2.6-2.7-3.9c-0.7-1.1-1.4-2.3-2.1-3.5c-0.7-1.2-1.4-2.5-2-3.8c-0.6-1.3-1.2-2.6-1.8-3.9
		c-0.5-1.2-1-2.5-1.5-3.7c-0.4-1.3-0.9-2.5-1.2-3.8c-0.4-1.4-0.8-2.8-1.1-4.2c-0.4-1.6-0.7-3.1-1-4.7c-0.2-1.2-0.4-2.4-0.5-3.6
		c-0.2-1.7-0.3-3.4-0.5-5.1c-0.1-1.2-0.1-2.4-0.1-3.6c0-0.3,0-0.5,0-0.8c0-0.3,0-0.6,0-0.9c0-1.3,0-2.7,0.1-4
		c0.1-1.8,0.2-3.6,0.4-5.3c0.1-1.2,0.3-2.4,0.5-3.6c0.3-1.7,0.6-3.4,1-5.1c0.4-1.5,0.8-3,1.2-4.5c0.4-1.2,0.8-2.4,1.3-3.6
		c0.5-1.3,1.1-2.5,1.7-3.8c0.6-1.2,1.2-2.3,1.9-3.5c0.4-0.7,0.8-1.4,1.2-2.1c0.4-0.6,0.8-1.2,1.2-1.8c0.7-1,1.3-1.9,2.1-2.8
		c1-1.2,2-2.3,3-3.4c0.9-1,1.8-1.9,2.8-2.7c1.1-1,2.2-1.9,3.3-2.8c1.2-1,2.5-1.9,3.8-2.7c1.1-0.7,2.1-1.4,3.3-2
		c0.6-0.3,1.2-0.7,1.8-1c2.1-1,4.2-2,6.3-3c1.2-0.6,2.4-1,3.7-1.2c0.5-0.1,1-0.4,1.4-0.8c0.5-0.6,0.5-1.5-0.1-2
		c-0.1-0.1-0.2-0.2-0.3-0.2c-2.1-1-4-2.6-5.3-4.6c-1.4-2.1-2.8-4.2-4.2-6.4c-0.2-0.3-0.4-0.6-0.5-0.9c-0.6-1.3-1.2-2.6-1.8-3.9
		c-0.5-1.3-1.1-2.5-1.7-3.8c0,0,0-0.1-0.1-0.1c-0.4-0.8-0.8-1.7-1-2.5c-0.6-1.8-1.1-3.7-1.6-5.6c-0.4-1.6-0.8-3.2-1.1-4.9
		c-0.2-1.2-0.4-2.4-0.5-3.6c-0.2-1.8-0.3-3.6-0.5-5.4c-0.1-1.2-0.1-2.4-0.1-3.6c0-0.1,0-0.2,0-0.3c0-1.3,0-2.5,0.1-3.8
		c0.1-1.9,0.2-3.7,0.4-5.6c0.1-1.3,0.3-2.5,0.5-3.7c0.3-1.7,0.6-3.3,1-5c0.3-1.3,0.7-2.7,1.1-4c0.4-1.4,0.9-2.7,1.4-4
		c0.5-1.3,1.1-2.6,1.7-3.8c0.6-1.2,1.2-2.4,1.9-3.5c0.7-1.2,1.4-2.4,2.2-3.5c0.7-1.1,1.5-2.2,2.3-3.2c0.7-0.9,1.4-1.7,2.2-2.6
		c0.8-0.9,1.6-1.8,2.4-2.6c1-1,2-1.9,3.1-2.9c1-0.8,2-1.6,3-2.4c1-0.7,2-1.4,3-2c1.3-0.8,2.6-1.5,3.9-2.2c1.3-0.7,2.7-1.4,4.1-2
		c1.1-0.5,2.2-0.9,3.3-1.3c1.3-0.5,2.6-0.9,3.9-1.2c1.4-0.4,2.9-0.7,4.3-1c1.5-0.3,3.1-0.6,4.7-0.8c1.4-0.2,2.7-0.4,4.1-0.5
		c1.4-0.1,2.8-0.2,4.2-0.3c1.4-0.1,2.9-0.1,4.3-0.1c1.4,0,2.9,0,4.3,0.1c1.6,0.1,3.1,0.2,4.7,0.4c1.4,0.2,2.9,0.4,4.3,0.6
		c1.4,0.2,2.8,0.5,4.1,0.9c1.3,0.3,2.5,0.7,3.8,1.1c1.4,0.5,2.8,1,4.2,1.5c1.3,0.5,2.7,1.1,4,1.7c1.2,0.6,2.3,1.2,3.5,1.8
		c1.5,0.8,2.9,1.7,4.3,2.6c0.9,0.6,1.8,1.3,2.7,2c1.1,1,2.3,1.9,3.4,2.9c1,0.9,2,1.8,3,2.7c0.2,0.2,0.4,0.3,0.5,0.5
		c0.2,0.1,0.3,0.3,0.5,0.4c0.7,0.7,1.4,1.4,2,2.1c1.2,1.4,2.4,2.9,3.6,4.4c0.9,1.1,1.7,2.3,2.5,3.5c0.8,1.1,1.5,2.3,2.1,3.5
		c0.7,1.1,1.3,2.3,1.8,3.5c0.6,1.3,1.2,2.6,1.8,3.9c0.6,1.3,1.1,2.7,1.5,4.1c0.4,1.3,0.8,2.6,1.2,3.8c0.5,1.7,0.8,3.5,1.2,5.2
		c0.2,1,0.3,2.1,0.4,3.1c0.1,1.5,0.2,2.9,0.3,4.4c0.1,1.5,0.2,3,0.3,4.5c0,0.2,0,0.4,0,0.6c0,0.2,0,0.4,0,0.6c0.1,1,0.1,1.9,0,2.9
		c-0.1,2.1-0.3,4.2-0.6,6.4c-0.2,1.5-0.4,3-0.7,4.4c-0.3,1.4-0.6,2.8-0.9,4.2c-0.3,1.4-0.7,2.8-1.2,4.1c-0.4,1.3-0.9,2.5-1.4,3.7
		c-0.4,1.1-0.9,2.1-1.5,3.1c-0.6,1.2-1.3,2.4-2,3.6c-0.7,1.2-1.5,2.4-2.3,3.6c-0.8,1.1-1.6,2.1-2.4,3.2c-0.9,1.1-1.8,2.1-2.8,3
		c-1,1-2.1,2-3.2,2.9c-0.5,0.4-1,0.8-1.5,1.2c-1.8,1.3-3.7,2.7-5.5,4c-0.7,0.5-1.5,1-2.2,1.4c-1.4,0.8-2.8,1.6-4.3,2.3l16.9,27h37.9
		v2.8l-0.3,9.1l-0.9,8.6l-0.9,4.8l-2.3,8.4l-3.1,8.2l-1.5,3.3l29.3,50.1H1985.4z M2395.2,1651.2h-51v168.5H2273v-168.5h-51v-69.5
		h173.2V1651.2z M2595.8,1651.2c-15.1,0-30.2,0-45.3,0c-2.9,0.2-7,0.2-10,2.5c-2.5,1.9-4.2,5.3-4.2,8.8c0,4.1,2.5,8.3,5.8,10.2
		c2.8,1.6,6.1,1.4,8.4,1.4c14.1,0,28.2,0,42.3,0c0,17.7,0,35.4,0,53.1c-16.3,0-32.7,0-49,0c-2.9,0.2-7,0.2-10,2.5
		c-2.5,1.9-4.2,5.3-4.2,8.8c0,4.1,2.5,8.3,5.8,10.2c2.8,1.6,6.1,1.4,8.4,1.4c17.3,0,34.7,0,52,0c0,23.2,0,46.3,0,69.5
		c-16.5,0-32.9,0-49.4,0c-2.2,0-4.4,0-6.6-0.1c-1.2,0-2.5-0.1-3.7-0.2c-2.7-0.2-5.4-0.4-8.2-0.5c-0.2,0-0.5,0-0.7-0.1
		c-1.5-0.1-3-0.3-4.5-0.5c-1-0.1-2.1-0.3-3.1-0.5c-0.3-0.1-0.6-0.1-0.9-0.2c-0.5-0.1-1-0.2-1.6-0.3c-1.4-0.3-2.8-0.6-4.1-1
		c-1.4-0.4-2.9-0.8-4.3-1.3c-1.3-0.4-2.6-0.9-3.8-1.4c-1.4-0.6-2.8-1.2-4.2-1.8c-0.6-0.3-1.2-0.6-1.8-0.9c-0.6-0.3-1.3-0.6-1.9-1
		c-1.1-0.6-2.2-1.2-3.3-1.9c-1.5-0.9-2.9-1.9-4.3-2.9c-1.1-0.8-2.2-1.6-3.3-2.5c-1.2-0.9-2.3-1.9-3.4-2.9c-1.1-1-2.2-2.1-3.2-3.2
		c-0.9-1-1.8-2-2.6-3c-1.1-1.4-2.2-2.8-3.3-4.3c-0.6-0.8-1.2-1.7-1.7-2.6c0-0.1-0.1-0.1-0.1-0.2c0-0.1-0.1-0.2-0.1-0.2
		c-0.7-1.1-1.3-2.2-1.9-3.3c-0.8-1.5-1.6-2.9-2.3-4.4c-0.5-1-1-2.1-1.4-3.2c-0.6-1.6-1.1-3.2-1.6-4.8c-0.2-0.6-0.3-1.3-0.5-1.9
		c-0.4-2.1-0.8-4.2-1.2-6.4c-0.1-0.8-0.2-1.6-0.3-2.3c0-0.7-0.1-1.4-0.1-2.1c0-32.7,0-65.3,0-98c0-0.2,0-0.4,0-0.6
		c0-1.3,0.1-2.7,0.2-4c0.2-3,0.4-5.9,0.6-8.9c0-0.3,0-0.6,0.1-1c0.1-1.4,0.3-2.9,0.5-4.3c0.2-1.4,0.4-2.9,0.6-4.3
		c0.2-1.4,0.5-2.7,0.8-4.1c0.2-1.1,0.5-2.2,0.8-3.3c0.4-1.2,0.7-2.5,1.1-3.7c0.3-0.8,0.6-1.6,0.9-2.4c0,0,0-0.1,0.1-0.1
		c0-0.1,0.1-0.2,0.1-0.3c0.4-1.1,0.9-2.2,1.4-3.3c0.7-1.4,1.4-2.8,2.1-4.1c0.6-1.1,1.2-2.1,2-3.1c0.9-1.3,1.9-2.5,2.9-3.8
		c1.1-1.3,2.2-2.5,3.3-3.8c0.9-0.9,1.8-1.9,2.8-2.8c0.7-0.7,1.5-1.3,2.2-2c0.8-0.7,1.5-1.3,2.3-1.9c1-0.9,2.1-1.7,3.2-2.5
		c1.1-0.8,2.3-1.6,3.5-2.4c1.2-0.8,2.4-1.5,3.7-2.2c1.3-0.7,2.6-1.3,3.9-1.8c1.6-0.7,3.2-1.3,4.8-1.9c1.2-0.4,2.4-0.8,3.5-1.2
		c0.6-0.2,1.1-0.3,1.7-0.5c0.3-0.1,0.6-0.2,0.9-0.3c1-0.3,2-0.5,3.1-0.8c1.4-0.3,2.7-0.6,4.1-0.8c1.3-0.2,2.6-0.5,3.9-0.6
		c1.4-0.2,2.8-0.4,4.1-0.5c1.8-0.2,3.6-0.4,5.4-0.5c1.2-0.1,2.4-0.2,3.5-0.2c0.4,0,0.9,0,1.3-0.1c2.8-0.1,5.6-0.2,8.4-0.3
		c0.3,0,0.6,0,1,0c1,0,2,0,3-0.1c15.2,0,30.4,0,45.6,0C2595.8,1604.9,2595.8,1628.1,2595.8,1651.2z M2840.4,1693.2v127h-69
		c0,0,0-96.4,0-144.4c-0.2-3.6-0.3-8.8-3.2-12.6c-2.4-3.1-6.7-5.4-11.1-5.3c-5.2,0-10.5,3.2-12.9,7.3c-2,3.5-1.8,7.7-1.8,10.6
		c0,8.4,0,17.1,0,25.4c6,0,12,0,18,0c0,21,0,63,0,63h-18v56h-73v-127l-0.3-0.3c0-2.3,0-4.6,0-6.9c0-1.3,0-2.5,0.1-3.8
		c0.1-2.8,0.2-5.7,0.3-8.5c0-0.2,0-0.4,0-0.6c0.1-2.1,0.2-4.1,0.3-6.2c0-0.4,0.1-0.8,0.1-1.2c0-0.1,0-0.3,0.1-0.4
		c0.1-0.8,0.2-1.6,0.3-2.3c0.2-1.6,0.4-3.2,0.6-4.7c0.2-1.4,0.3-2.7,0.5-4.1c0.2-1.5,0.4-3,0.7-4.5c0.3-1.3,0.6-2.7,1-4
		c0.1-0.3,0.1-0.5,0.2-0.8c0.1-0.3,0.2-0.7,0.3-1c0.4-1.4,0.8-2.9,1.3-4.3c0.5-1.6,0.9-3.2,1.4-4.7c0.3-1.1,0.7-2.2,1.1-3.3
		c0.6-1.7,1.3-3.4,2-5c0.6-1.3,1.1-2.5,1.8-3.8c0.7-1.3,1.4-2.7,2.1-4c0.7-1.2,1.4-2.4,2.1-3.5c0.8-1.2,1.5-2.4,2.3-3.6
		c0.8-1.2,1.7-2.4,2.6-3.6c0.8-1,1.6-2,2.4-3c0.8-1,1.7-2,2.6-2.9c1-1,1.9-2,2.9-3c0.8-0.8,1.6-1.6,2.5-2.3c0.8-0.7,1.7-1.5,2.5-2.2
		c1-0.8,2-1.6,3-2.4c1.2-0.9,2.5-1.7,3.7-2.6c1.2-0.8,2.3-1.5,3.5-2.2c1.2-0.7,2.4-1.3,3.6-1.9c1.2-0.6,2.5-1.2,3.7-1.7
		c1.3-0.5,2.6-1.1,3.9-1.5c1.3-0.5,2.7-1,4.1-1.4c1.3-0.4,2.7-0.8,4-1.1c1.5-0.4,3-0.7,4.4-1c1.3-0.3,2.7-0.5,4-0.7
		c1.7-0.2,3.3-0.4,5-0.6c1.3-0.1,2.6-0.2,3.9-0.3c0.8,0,1.5,0,2.3-0.1c0.8,0,1.6,0,2.4,0c1.4,0,2.7,0,4.1,0.1
		c1.6,0.1,3.1,0.2,4.7,0.3c1.3,0.1,2.6,0.3,3.9,0.5c1.6,0.2,3.2,0.5,4.7,0.9c1.5,0.3,3,0.7,4.4,1c1.3,0.3,2.5,0.7,3.8,1.1
		c1.4,0.5,2.8,1,4.2,1.5c1.3,0.5,2.5,1,3.8,1.6c0.9,0.4,1.8,0.8,2.7,1.3c0.9,0.4,1.8,0.9,2.6,1.3c1.2,0.6,2.3,1.2,3.4,1.9
		c1.3,0.8,2.6,1.6,3.9,2.5c1.2,0.8,2.3,1.6,3.4,2.5c1.1,0.9,2.3,1.8,3.3,2.7c1.1,0.9,2.1,1.9,3.2,2.9c1,1,2,2,3,3.1
		c1.1,1.2,2.2,2.4,3.3,3.7c0.8,0.9,1.6,1.9,2.4,2.9c0.6,0.8,1.2,1.6,1.7,2.4c0.6,0.8,1.1,1.7,1.7,2.5c0.8,1.2,1.5,2.4,2.2,3.6
		c0.7,1.3,1.4,2.5,2.1,3.8c0.6,1.2,1.3,2.5,1.8,3.7c0.6,1.3,1.2,2.7,1.8,4c0.6,1.4,1.2,2.9,1.7,4.3c0.5,1.3,0.9,2.6,1.3,3.9
		c0.5,1.5,0.9,3,1.3,4.5c0.3,1.2,0.6,2.4,0.9,3.6c0.3,1.2,0.5,2.5,0.8,3.7c0.2,1,0.4,2,0.5,3c0.2,1.3,0.4,2.6,0.6,3.9
		c0.2,1.2,0.3,2.5,0.5,3.7c0.2,1.6,0.4,3.1,0.5,4.7c0.1,1.2,0.2,2.5,0.3,3.7c0.1,1.7,0.2,3.4,0.3,5.2c0.1,1.4,0.1,2.7,0.2,4.1
		c0,0.3,0,0.5,0,0.8c0.1,3.1,0.2,6.2,0.2,9.4c0,0.5,0,1,0,1.5c0,1.3,0,2.7,0.1,4L2840.4,1693.2z"/>
	<circle class="st0" cx="699.3" cy="1700.9" r="53.9"/>
	<path class="st0" d="M1919.4,1725.2c-1.1,0.7-2.2,1.6-3,2.6c-0.4,0.5-0.8,1-1.2,1.5c-0.1,0.1-0.2,0.3-0.3,0.5
		c-0.6,1-1.2,2.1-1.5,3.3c-0.5,1.4-0.8,2.9-1,4.4c-0.1,0.7-0.1,1.4-0.2,2.1c0,0.7-0.1,1.5-0.1,2.2c0,1.5,0.1,3.1,0.3,4.6
		c0.2,1.4,0.5,2.9,0.9,4.3c0.4,1.4,0.9,2.8,1.5,4.1c0.5,1.2,1.2,2.3,1.9,3.4c0.3,0.4,0.5,0.8,0.8,1.1c0.4,0.5,0.7,0.9,1.1,1.4
		c0.9,1.1,2,2.2,3.1,3.1c1.1,0.9,2.2,1.6,3.5,2.2c1.3,0.6,2.6,1.1,4,1.5c1.3,0.4,2.7,0.6,4.1,0.7c0.3,0,0.7,0,1,0.1
		c0.3,0,0.6,0,0.8,0c1.7,0,3.3-0.1,5-0.3c0.8-0.1,1.5-0.4,2.2-0.8l6.2-3.7l-24.8-40.1C1922.2,1723.7,1920.7,1724.4,1919.4,1725.2z"
		/>
	<path class="st0" d="M1948.7,1624c-0.2-0.3-0.5-0.6-0.7-0.9c-0.2-0.2-0.5-0.5-0.7-0.7c-0.9-0.7-1.8-1.3-2.9-1.8
		c-1.4-0.6-2.9-1-4.5-1.2c-0.6-0.1-1.3-0.2-1.9-0.2c-0.7,0-1.3-0.1-2-0.1c-1.7,0-3.4,0.3-5.1,0.7c-1.2,0.3-2.3,0.8-3.4,1.5
		c-0.2,0.2-0.5,0.3-0.7,0.5c-0.2,0.2-0.4,0.4-0.6,0.6c-0.8,0.8-1.5,1.8-1.9,2.8c-0.6,1.4-1,3-1.2,4.5c-0.1,0.5-0.1,1.1-0.1,1.6
		c0,0.4,0,0.7,0,1.1c0,1.5,0.2,3,0.5,4.4c0.3,1.3,0.7,2.5,1.3,3.7c0.1,0.2,0.2,0.4,0.3,0.7c0.4,0.7,0.7,1.4,1.1,2
		c0.5,1,1.1,1.9,1.8,2.9c0.8,1.2,1.7,2.3,2.6,3.4l6,6.6l6.7-6.7c0.9-1,1.8-2,2.6-3.1c0.8-1.1,1.5-2.2,2.1-3.4c0.7-1.5,1.4-3.1,2-4.7
		c0.3-0.8,0.5-1.6,0.7-2.4c0.1-0.5,0.2-1.1,0.2-1.6c0.1-0.7,0.1-1.4,0.1-2.1c0-1.6-0.2-3.1-0.6-4.6
		C1950.1,1626.2,1949.5,1625,1948.7,1624z"/>
</g>
</svg>
